<?xml version="1.0" standalone="no"?>
<!DOCTYPE svg PUBLIC "-//W3C//DTD SVG 20010904//EN"
 "http://www.w3.org/TR/2001/REC-SVG-20010904/DTD/svg10.dtd">
<svg version="1.0" xmlns="http://www.w3.org/2000/svg"
 width="156.000000pt" height="156.000000pt" viewBox="0 0 156.000000 156.000000"
 preserveAspectRatio="xMidYMid meet">
<metadata>
Created by potrace 1.14, written by Peter Selinger 2001-2017
</metadata>
<g transform="translate(0.000000,156.000000) scale(0.100000,-0.100000)"
fill="#000000" stroke="none">
<path d="M0 1178 c1 -211 5 -401 10 -422 6 -26 21 -51 44 -70 19 -17 40 -48
46 -69 6 -20 20 -42 31 -47 10 -6 19 -15 19 -21 0 -5 11 -22 24 -36 14 -15 27
-37 31 -51 7 -27 29 -54 39 -47 3 3 2 0 -4 -7 -7 -8 -1 -22 17 -47 15 -19 20
-31 12 -26 -11 6 -12 5 -2 -5 10 -11 15 -11 30 0 15 12 16 12 5 0 -15 -17 -16
-40 -1 -40 16 0 41 -29 34 -40 -3 -5 -1 -10 5 -10 7 0 5 -10 -4 -28 -9 -17
-31 -34 -60 -46 -25 -10 -46 -23 -46 -28 0 -4 -3 -7 -7 -6 -11 2 -38 -9 -108
-42 -33 -16 -71 -31 -85 -32 -19 -2 -26 -10 -28 -30 l-3 -28 750 0 c413 0 751
3 751 6 0 15 -62 91 -89 109 -17 11 -31 23 -31 28 0 4 -7 7 -15 7 -8 0 -21 11
-30 24 -13 19 -14 32 -4 77 6 30 18 66 25 81 8 16 11 28 7 28 -5 0 -3 4 2 8
10 7 46 97 47 120 1 6 4 12 8 12 8 0 9 4 14 115 3 79 0 103 -26 185 -35 113
-40 130 -40 150 0 8 -4 29 -9 46 -5 17 -11 59 -12 93 -1 33 -6 61 -10 61 -9 0
-15 5 -65 48 -29 25 -32 33 -28 70 2 23 0 42 -5 42 -5 0 -8 3 -8 8 4 21 -3 40
-18 58 -10 10 -36 42 -58 69 -22 27 -54 64 -72 82 l-31 33 -526 0 -526 0 0
-382z m324 -866 c3 -5 -1 -9 -9 -9 -8 0 -12 4 -9 9 3 4 7 8 9 8 2 0 6 -4 9 -8z"/>
</g>
</svg>
